<svg height="512pt" viewBox="0 -154 512.00001 512" width="512pt" xmlns="http://www.w3.org/2000/svg"><path d="m494.933594 0h-477.867188c-9.425781 0-17.066406 7.640625-17.066406 17.066406v170.667969c0 9.425781 7.640625 17.066406 17.066406 17.066406h477.867188c9.425781 0 17.066406-7.640625 17.066406-17.066406v-170.667969c0-9.425781-7.640625-17.066406-17.066406-17.066406zm-477.867188 187.734375v-170.667969h477.867188v170.667969zm0 0"/><path d="m426.667969 110.933594v-68.265625c0-4.714844-3.820313-8.535157-8.535157-8.535157h-324.265624c-4.714844 0-8.535157 3.820313-8.535157 8.535157v68.265625c0 4.714844 3.820313 8.535156 8.535157 8.535156h324.265624c4.714844 0 8.535157-3.820312 8.535157-8.535156zm-17.066407-8.53125h-307.203124v-51.203125h307.203124zm0 0"/><path d="m59.734375 110.933594c-18.851563 0-34.132813 15.28125-34.132813 34.132812 0 18.851563 15.28125 34.132813 34.132813 34.132813s34.132813-15.28125 34.132813-34.132813c0-18.851562-15.28125-34.132812-34.132813-34.132812zm0 51.199218c-9.425781 0-17.066406-7.640624-17.066406-17.066406 0-9.425781 7.640625-17.066406 17.066406-17.066406s17.066406 7.640625 17.066406 17.066406c0 9.425782-7.640625 17.066406-17.066406 17.066406zm0 0"/><path d="m452.265625 110.933594c-18.851563 0-34.132813 15.28125-34.132813 34.132812 0 18.851563 15.28125 34.132813 34.132813 34.132813s34.132813-15.28125 34.132813-34.132813c0-18.851562-15.28125-34.132812-34.132813-34.132812zm0 51.199218c-9.425781 0-17.066406-7.640624-17.066406-17.066406 0-9.425781 7.640625-17.066406 17.066406-17.066406s17.066406 7.640625 17.066406 17.066406c0 9.425782-7.640625 17.066406-17.066406 17.066406zm0 0"/><path d="m401.066406 145.066406h-290.132812c-4.714844 0-8.535156 3.820313-8.535156 8.535156 0 4.710938 3.820312 8.53125 8.535156 8.53125h290.132812c4.714844 0 8.535156-3.820312 8.535156-8.53125 0-4.714843-3.820312-8.535156-8.535156-8.535156zm0 0"/><path d="m460.800781 93.867188c4.710938 0 8.53125-3.820313 8.53125-8.535157v-34.132812c0-4.710938-3.820312-8.53125-8.53125-8.53125-4.714843 0-8.535156 3.820312-8.535156 8.53125v34.132812c0 4.714844 3.820313 8.535157 8.535156 8.535157zm0 0"/><path d="m42.667969 51.199219h17.066406c4.710937 0 8.53125-3.820313 8.53125-8.53125 0-4.714844-3.820313-8.535157-8.53125-8.535157h-17.066406c-4.714844 0-8.535157 3.820313-8.535157 8.535157 0 4.710937 3.820313 8.53125 8.535157 8.53125zm0 0"/><path d="m42.667969 85.332031h17.066406c4.710937 0 8.53125-3.820312 8.53125-8.53125 0-4.710937-3.820313-8.535156-8.53125-8.535156h-17.066406c-4.714844 0-8.535157 3.824219-8.535157 8.535156 0 4.710938 3.820313 8.53125 8.535157 8.53125zm0 0"/><path d="m247.46875 85.332031h17.066406c4.710938 0 8.53125-3.820312 8.53125-8.53125 0-4.710937-3.820312-8.535156-8.53125-8.535156h-17.066406c-4.714844 0-8.535156 3.824219-8.535156 8.535156 0 4.710938 3.820312 8.53125 8.535156 8.53125zm0 0"/><path d="m298.667969 85.332031h17.066406c4.710937 0 8.53125-3.820312 8.53125-8.53125 0-4.710937-3.820313-8.535156-8.53125-8.535156h-17.066406c-4.714844 0-8.535157 3.824219-8.535157 8.535156 0 4.710938 3.820313 8.53125 8.535157 8.53125zm0 0"/><path d="m196.265625 85.332031h17.066406c4.714844 0 8.535157-3.820312 8.535157-8.53125 0-4.710937-3.820313-8.535156-8.535157-8.535156h-17.066406c-4.710937 0-8.53125 3.824219-8.53125 8.535156 0 4.710938 3.820313 8.53125 8.53125 8.53125zm0 0"/></svg>