<?xml version="1.0" encoding="iso-8859-1"?>
<!-- Generator: Adobe Illustrator 19.0.0, SVG Export Plug-In . SVG Version: 6.00 Build 0)  -->
<svg version="1.1" id="Capa_1" xmlns="http://www.w3.org/2000/svg" xmlns:xlink="http://www.w3.org/1999/xlink" x="0px" y="0px"
	 viewBox="0 0 511.999 511.999" style="enable-background:new 0 0 511.999 511.999;" xml:space="preserve">
<g>
	<g>
		<circle cx="226.032" cy="436.006" r="15"/>
	</g>
</g>
<g>
	<g>
		<circle cx="76.037" cy="286.011" r="15"/>
	</g>
</g>
<g>
	<g>
		<circle cx="119.976" cy="392.068" r="15"/>
	</g>
</g>
<g>
	<g>
		<circle cx="332.099" cy="392.068" r="15"/>
	</g>
</g>
<g>
	<g>
		<circle cx="119.976" cy="179.944" r="15"/>
	</g>
</g>
<g>
	<g>
		<path d="M226.034,181.01c-57.895,0-104.997,47.102-104.997,104.997s47.102,104.997,104.997,104.997
			s104.997-47.102,104.997-104.997S283.929,181.01,226.034,181.01z M226.034,361.005c-41.354,0-74.998-33.644-74.998-74.998
			c0-41.354,33.644-74.998,74.998-74.998c41.354,0,74.998,33.644,74.998,74.998C301.032,327.361,267.388,361.005,226.034,361.005z"
			/>
	</g>
</g>
<g>
	<g>
		<path d="M226.034,241.008c-24.812,0-44.999,20.186-44.999,44.999c0,24.812,20.186,44.999,44.999,44.999
			c24.812,0,44.999-20.186,44.999-44.999C271.033,261.195,250.846,241.008,226.034,241.008z M226.034,301.007
			c-8.271,0-15-6.729-15-15c0-8.271,6.729-15,15-15c8.271,0,15,6.729,15,15C241.034,294.278,234.305,301.007,226.034,301.007z"/>
	</g>
</g>
<g>
	<g>
		<path d="M435.621,90.153C385.278,36.967,313.15,5.804,227.037,0.034c-8.665-0.578-16.003,6.299-16.003,14.966v46.522
			C93.389,69.235,0.041,166.964,0.041,286.006c0,124.386,101.629,225.993,225.993,225.993c119.042,0,216.771-93.348,224.485-210.993
			h46.439c8.459,0,15.239-6.996,14.994-15.435C509.701,208.108,483.307,140.534,435.621,90.153z M226.034,482.001
			c-108.072,0-195.994-87.922-195.994-195.994c0-102.5,79.904-186.78,180.994-194.428v44.433c0,8.284,6.716,15,15,15
			c74.437,0,134.996,60.559,134.996,134.996c0,8.284,6.716,15,15,15h44.433C412.814,402.096,328.534,482.001,226.034,482.001z
			 M390.353,271.006L390.353,271.006c-7.152-79.04-70.279-142.167-149.319-149.318V31.374
			c139.683,15.292,230.015,105.444,240.128,239.632H390.353z"/>
	</g>
</g>
<g>
</g>
<g>
</g>
<g>
</g>
<g>
</g>
<g>
</g>
<g>
</g>
<g>
</g>
<g>
</g>
<g>
</g>
<g>
</g>
<g>
</g>
<g>
</g>
<g>
</g>
<g>
</g>
<g>
</g>
</svg>
