<?xml version="1.0" encoding="iso-8859-1"?>
<!-- Generator: Adobe Illustrator 19.0.0, SVG Export Plug-In . SVG Version: 6.00 Build 0)  -->
<svg version="1.1" id="Capa_1" xmlns="http://www.w3.org/2000/svg" xmlns:xlink="http://www.w3.org/1999/xlink" x="0px" y="0px"
	 viewBox="0 0 480.64 480.64" style="enable-background:new 0 0 480.64 480.64;" xml:space="preserve">
<g>
	<g>
		<path d="M288.32,64.64v-16c0.351-26.51-20.854-48.285-47.364-48.636c-26.51-0.351-48.285,20.854-48.636,47.364V64.64
			c-13.255,0-24,10.745-24,24s10.745,24,24,24h96c13.255,0,24-10.745,24-24S301.575,64.64,288.32,64.64z M208.32,47.368
			c0.351-17.673,14.963-31.715,32.636-31.364c17.673,0.351,31.715,14.963,31.364,32.636v16h-64V47.368z M288.32,96.64h-96
			c-4.418,0-8-3.582-8-8s3.582-8,8-8h96c4.418,0,8,3.582,8,8S292.738,96.64,288.32,96.64z"/>
	</g>
</g>
<g>
	<g>
		<path d="M288.32,272.64h-96c-13.255,0-24,10.745-24,24s10.745,24,24,24v72c0.019,11.526,4.185,22.66,11.736,31.368
			c-2.44,5.206-3.715,10.882-3.736,16.632c0,22.091,17.909,40,40,40c22.091,0,40-17.909,40-40
			c-0.021-5.75-1.296-11.426-3.736-16.632c7.551-8.708,11.717-19.842,11.736-31.368v-72c13.255,0,24-10.745,24-24
			S301.575,272.64,288.32,272.64z M240.32,464.64c-13.255,0-24-10.745-24-24s10.745-24,24-24s24,10.745,24,24
			S253.575,464.64,240.32,464.64z M272.32,392.64c-0.032,6.468-2.024,12.774-5.712,18.088c-14.945-13.45-37.631-13.45-52.576,0
			c-3.688-5.314-5.68-11.62-5.712-18.088v-72h32v32h16v-32h16V392.64z M288.32,304.64h-96c-4.418,0-8-3.582-8-8s3.582-8,8-8h96
			c4.418,0,8,3.582,8,8S292.738,304.64,288.32,304.64z"/>
	</g>
</g>
<g>
	<g>
		
			<rect x="174.348" y="144.64" transform="matrix(0.9701 -0.2425 0.2425 0.9701 -29.844 62.8411)" width="131.936" height="15.992"/>
	</g>
</g>
<g>
	<g>
		
			<rect x="174.354" y="184.638" transform="matrix(0.9701 -0.2425 0.2425 0.9701 -39.5446 64.0368)" width="131.936" height="15.992"/>
	</g>
</g>
<g>
	<g>
		
			<rect x="174.351" y="224.643" transform="matrix(0.9701 -0.2425 0.2425 0.9701 -49.2473 65.2305)" width="131.936" height="15.992"/>
	</g>
</g>
<g>
	<g>
		<rect x="176.32" y="128.64" width="24" height="16"/>
	</g>
</g>
<g>
	<g>
		<rect x="280.32" y="240.64" width="24" height="16"/>
	</g>
</g>
<g>
	<g>
		<rect x="232.32" y="32.64" width="16" height="16"/>
	</g>
</g>
<g>
	<g>
		<rect x="232.32" y="432.64" width="16" height="16"/>
	</g>
</g>
<g>
	<g>
		<rect x="240.32" y="368.64" width="16" height="16"/>
	</g>
</g>
<g>
</g>
<g>
</g>
<g>
</g>
<g>
</g>
<g>
</g>
<g>
</g>
<g>
</g>
<g>
</g>
<g>
</g>
<g>
</g>
<g>
</g>
<g>
</g>
<g>
</g>
<g>
</g>
<g>
</g>
</svg>
